<?xml version="1.0" encoding="UTF-8"?>
<svg id="Layer_1" data-name="Layer 1" xmlns="http://www.w3.org/2000/svg" viewBox="0 0 16 16">
  <defs>
    <style>
      .cls-1 {
        fill: #699f95;
      }

      .cls-2 {
        fill: #ad89ae;
      }

      .cls-3 {
        fill: #bdeaef;
      }

      .cls-4 {
        fill: #fff;
      }

      .cls-5 {
        fill: #645266;
      }

      .cls-6 {
        fill: none;
        stroke: #645266;
        stroke-linecap: round;
        stroke-miterlimit: 10;
        stroke-width: .09px;
      }
    </style>
  </defs>
  <path class="cls-1" d="M15.74,4.9c-.34-.61-2.76.12-6.15,2.14-.09.35-.56.78-.73.87.02.17.04.34.04.51.83-.07,2.13-.48,3.72-.96,2.15-.66,3.46-1.92,3.11-2.56Z"/>
  <path class="cls-3" d="M8.42,8.3s0-.04,0-.06c0,0,0,0,0,0,0,0,0,0,0,0-.04.02-.08.04-.12.05-.06.02-.12.02-.18.02.08.06.19.09.32.11,0-.04,0-.08,0-.11Z"/>
  <path class="cls-1" d="M7.02,7.92c-.07-.03-.13-.08-.2-.12-.73-.48-.76-1.38-.76-1.38-.05-.04-.06-.11-.11-.16C3.16,3.58,1.34,2.87.99,3.5c-.35.63.84,2.23,3.11,3.35,1.16.57,2.17.93,2.94,1.07,0,0-.02,0-.02,0Z"/>
  <path class="cls-1" d="M9.43,7.99l-.53.17c0,.11.01.22.02.33,3.21,2.28,6.69,1.74,6.88,1.06.2-.7-1.3-1.62-6.37-1.56Z"/>
  <path class="cls-1" d="M7.14,7.96s-.07-.02-.11-.04c-.07-.03-.14-.08-.2-.12-.02-.01-.03-.03-.05-.04C2.28,6.65.2,6.6.19,7.3c-.01.66,1.75,2.57,6.93,1.15,0-.09,0-.17,0-.26,0-.08,0-.16.01-.23Z"/>
  <path class="cls-2" d="M8.04,10.04c-.37-.05-.43-.18-.46-.24-.21.53-.34,1.25-.66,1.79-.45.75-.73,1.58-.38,1.72.37.16,1.36-.68,1.72-1.75.21-.63.34-1.33.32-1.82-.04.16-.29.34-.55.3Z"/>
  <path class="cls-2" d="M8.75,8.24c-.02-.17,0-.18-.03-.3-.1.07-.28.18-.7.18-.44,0-.57-.02-.72-.1-.06.19-.06.31-.04.59.05.87.28,1.27.79,1.3.67.05.82-.8.7-1.67Z"/>
  <path class="cls-2" d="M9.55,6.45c0,.86-.74,1.55-1.66,1.55s-1.59-.63-1.65-1.43c-.07-.15-.1-.32-.1-.5,0-.63.45-1.14,1-1.14.09,0,.18.01.26.04.15-.04.32-.07.49-.07.11,0,.22.01.32.03.08-.02.16-.03.24-.03.58,0,1.05.5,1.05,1.11,0,.03,0,.06,0,.09.03.11.04.23.04.34Z"/>
  <circle class="cls-4" cx="6.99" cy="5.88" r=".63"/>
  <circle class="cls-4" cx="8.47" cy="5.94" r=".73"/>
  <circle class="cls-5" cx="7.06" cy="5.88" r=".43"/>
  <circle class="cls-5" cx="8.41" cy="5.92" r=".49"/>
  <circle class="cls-4" cx="8.65" cy="5.69" r=".27"/>
  <circle class="cls-4" cx="7.26" cy="5.71" r=".23"/>
  <path class="cls-6" d="M7.36,7.08s.38.71.85,0"/>
  <path class="cls-2" d="M7.57,4.92s-.06-1-.63-1.27c0,0,.46.6.45,1.37s.18-.1.18-.1Z"/>
  <ellipse class="cls-2" cx="6.69" cy="3.79" rx=".31" ry=".12" transform="translate(-.82 2.14) rotate(-17.13)"/>
  <path class="cls-2" d="M8.19,4.93s.29-1.13.9-1.22c0,0-.57.4-.7,1.23-.09.6-.2-.01-.2-.01Z"/>
  <ellipse class="cls-2" cx="9.28" cy="3.93" rx=".12" ry=".31" transform="translate(.73 9.26) rotate(-54.85)"/>
</svg>